Coordinates
version=1
nRows=19
nColumns=24
inDegrees=yes

Units are S.I. units (second, meters, Newtons, ...)
Angles are in degrees.

endheader
time	pelvis_tilt	pelvis_list	pelvis_rotation	pelvis_tx	pelvis_ty	pelvis_tz	hip_flexion_r	hip_adduction_r	hip_rotation_r	knee_angle_r	ankle_angle_r	subtalar_angle_r	mtp_angle_r	hip_flexion_l	hip_adduction_l	hip_rotation_l	knee_angle_l	ankle_angle_l	subtalar_angle_l	mtp_angle_l	lumbar_extension	lumbar_bending	lumbar_rotation
      3.14500000	     -9.47845142	      9.35197287	     -4.35477705	     -2.52278045	     -0.04928011	      0.44424364	     17.96858492	    -11.05294849	      1.14094188	    -66.07665501	    -28.10893925	      5.40756060	     23.42664216	     30.27831067	     11.54485068	      2.82590758	    -29.74234814	      3.55897449	     16.96388745	     13.66707029	      9.57559098	     -8.34060804	      9.37995777
      3.15000000	     -9.31643624	      9.42013762	     -4.36273923	     -2.51527070	     -0.04809022	      0.44403195	     18.72346821	    -11.00694494	      1.24684097	    -66.70305591	    -27.21702089	      5.02389915	     23.79276743	     29.34591877	     11.71777688	      2.91950073	    -29.33999171	      4.01172177	     17.06245060	     13.70297981	      9.47660837	     -8.40028218	      9.22954573
      3.15500000	     -9.05116333	      9.48180235	     -4.44465183	     -2.50774782	     -0.04670516	      0.44390002	     19.36592854	    -10.92386753	      1.44318594	    -67.21730965	    -26.31455541	      4.84866047	     24.24580055	     28.26493579	     11.87530728	      3.01635322	    -28.86685775	      4.38980269	     17.05082469	     13.59431647	      9.27451881	     -8.44695664	      9.06411758
      3.16000000	     -8.83073933	      9.45337336	     -4.45019227	     -2.50025443	     -0.04535054	      0.44362906	     20.01086130	    -10.76799884	      1.52103597	    -67.62940483	    -25.43806428	      4.68337127	     24.69432155	     27.22571787	     11.99229367	      3.25962011	    -28.41236874	      4.73012189	     16.93929857	     13.48314606	      9.09957503	     -8.39671453	      8.86534917
      3.16500000	     -8.63917431	      9.38342140	     -4.42815746	     -2.49279242	     -0.04401286	      0.44332664	     20.66757293	    -10.56713365	      1.56166913	    -67.95572421	    -24.58780600	      4.57382935	     25.12375440	     26.21018021	     12.07781213	      3.56236021	    -27.95104068	      5.02967702	     16.79953691	     13.39559129	      8.94721678	     -8.30529594	      8.62868416
      3.17000000	     -8.44811914	      9.27100374	     -4.38744893	     -2.48536417	     -0.04266707	      0.44300242	     21.30151213	    -10.32485824	      1.56664206	    -68.19115544	    -23.73877146	      4.54594538	     25.56301504	     25.18748742	     12.13225271	      3.92473684	    -27.48414973	      5.28638454	     16.59452446	     13.29648026	      8.78491585	     -8.17207154	      8.36091225
      3.17500000	     -8.27481558	      9.12331097	     -4.32713722	     -2.47793549	     -0.04133098	      0.44267937	     21.92836122	    -10.04287301	      1.54404219	    -68.33616965	    -22.90641720	      4.57125013	     25.99410767	     24.17242803	     12.15520432	      4.34508073	    -27.00873737	      5.51183011	     16.35513864	     13.19299180	      8.63860588	     -8.00470037	      8.06587729
      3.18000000	     -8.09760380	      8.94636070	     -4.24676859	     -2.47054372	     -0.03999819	      0.44233552	     22.52759640	     -9.73749746	      1.48994808	    -68.39348083	    -22.07031708	      4.66730926	     26.44632336	     23.14788879	     12.15736928	      4.81822984	    -26.52818171	      5.69891842	     16.05271921	     13.06253531	      8.47777238	     -7.81224233	      7.73474632
      3.18500000	     -7.91959006	      8.75117295	     -4.14644642	     -2.46319796	     -0.03870176	      0.44197102	     23.10709595	     -9.42174318	      1.40727020	    -68.37174858	    -21.22944980	      4.80265862	     26.91925270	     22.12212644	     12.14786235	      5.33655306	    -26.04907996	      5.86020547	     15.68976462	     12.91182104	      8.30141979	     -7.60457885	      7.38192096
      3.19000000	     -7.75431026	      8.52547887	     -4.02753416	     -2.45583818	     -0.03741196	      0.44161267	     23.66913418	     -9.07723148	      1.29866504	    -68.25561063	    -20.40623772	      4.98318503	     27.38878153	     21.09526615	     12.10573281	      5.90846548	    -25.55413634	      5.99334845	     15.29744192	     12.74078196	      8.14227082	     -7.36910391	      7.01071386
      3.19500000	     -7.62033672	      8.25205480	     -3.89174402	     -2.44847847	     -0.03613903	      0.44127483	     24.23357103	     -8.67598066	      1.17273277	    -68.04582986	    -19.62265384	      5.19917505	     27.80724024	     20.09418952	     12.00284286	      6.50449958	    -25.05581133	      6.11502242	     14.91482895	     12.56043575	      8.01758319	     -7.08671367	      6.60971142
      3.20000000	     -7.44181326	      8.01129536	     -3.75544528	     -2.44118747	     -0.03492101	      0.44089391	     24.74773962	     -8.33166927	      1.04012564	    -67.77595306	    -18.80817008	      5.42491710	     28.28498340	     19.04426470	     11.94751550	      7.17094365	    -24.54483344	      6.19405294	     14.39083179	     12.32108440	      7.82935794	     -6.84134575	      6.23434685
      3.20500000	     -7.33006940	      7.69537597	     -3.55328887	     -2.43395238	     -0.03376845	      0.44049577	     25.29123658	     -7.91889381	      0.83864406	    -67.41643606	    -18.02495433	      5.67139065	     28.64631588	     18.08410387	     11.79693165	      7.80574365	    -24.07176168	      6.32187942	     14.00504956	     12.13107397	      7.69238216	     -6.52629999	      5.74155447
      3.21000000	     -7.19447155	      7.38629821	     -3.34686555	     -2.42676168	     -0.03265328	      0.44010987	     25.79797563	     -7.52555756	      0.63151734	    -66.99166755	    -17.24287875	      5.93402240	     28.98749081	     17.09406676	     11.65203048	      8.49671726	    -23.58802723	      6.41504044	     13.54089129	     11.87376200	      7.52951992	     -6.22774221	      5.25577434
      3.21500000	     -7.07703665	      7.06400572	     -3.12011708	     -2.41961430	     -0.03159454	      0.43970456	     26.30435877	     -7.12964946	      0.40791134	    -66.49126140	    -16.49452945	      6.18085201	     29.26536957	     16.12750158	     11.48077235	      9.18544180	    -23.10242901	      6.51403663	     13.09948944	     11.61470370	      7.37618934	     -5.91617262	      4.75824517
      3.22000000	     -6.97014030	      6.73023796	     -2.86224237	     -2.41252912	     -0.03059635	      0.43929669	     26.80270779	     -6.73713922	      0.16279343	    -65.92213438	    -15.77977224	      6.42154628	     29.47607001	     15.18428717	     11.28512555	      9.87452953	    -22.62974737	      6.61909829	     12.69512057	     11.35492911	      7.22505705	     -5.60288394	      4.22004755
      3.22500000	     -6.87326409	      6.39040653	     -2.58331092	     -2.40550816	     -0.02966421	      0.43887813	     27.29596611	     -6.35350163	     -0.09738268	    -65.28581500	    -15.09405439	      6.64121772	     29.61492467	     14.26210939	     11.06922523	     10.55633009	    -22.16199674	      6.73526303	     12.32449870	     11.09376238	      7.07382253	     -5.28762658	      3.66336099
      3.23000000	     -6.78011407	      6.05069087	     -2.28637331	     -2.39854640	     -0.02880060	      0.43845632	     27.77822343	     -5.98532278	     -0.36710071	    -64.58620680	    -14.43482781	      6.83621431	     29.67716167	     13.35534597	     10.83881722	     11.22650100	    -21.70006450	      6.86551982	     11.98666200	     10.83039377	      6.91781618	     -4.97741173	      3.09010057
      3.23500000	     -6.69329943	      5.71183873	     -1.97848793	     -2.39163474	     -0.02800199	      0.43803906	     28.25279861	     -5.63007075	     -0.63695597	    -63.82287720	    -13.81080055	      7.00424904	     29.65598153	     12.46609010	     10.59069433	     11.87049604	    -21.24087507	      7.00873277	     11.69587094	     10.56998185	      6.76322217	     -4.67153402	      2.51131322
